<?xml version="1.0" encoding="UTF-8" standalone="no"?>
<svg
   id="avatarka"
   viewBox="0 0 102.1 102.1"
   version="1.1"
   sodipodi:docname="avatarka2.svg"
   inkscape:version="1.1 (c68e22c387, 2021-05-23)"
   xmlns:inkscape="http://www.inkscape.org/namespaces/inkscape"
   xmlns:sodipodi="http://sodipodi.sourceforge.net/DTD/sodipodi-0.dtd"
   xmlns="http://www.w3.org/2000/svg"
   xmlns:svg="http://www.w3.org/2000/svg"
   xmlns:rdf="http://www.w3.org/1999/02/22-rdf-syntax-ns#"
   xmlns:cc="http://creativecommons.org/ns#"
   xmlns:dc="http://purl.org/dc/elements/1.1/">
  <sodipodi:namedview
     id="namedview11"
     pagecolor="#ffffff"
     bordercolor="#666666"
     borderopacity="1.0"
     inkscape:pageshadow="2"
     inkscape:pageopacity="0.0"
     inkscape:pagecheckerboard="0"
     showgrid="false"
     inkscape:zoom="6.0391491"
     inkscape:cx="48.516769"
     inkscape:cy="51.911287"
     inkscape:window-width="1858"
     inkscape:window-height="1057"
     inkscape:window-x="1912"
     inkscape:window-y="79"
     inkscape:window-maximized="1"
     inkscape:current-layer="avatarka" />
  <defs
     id="defs4">
    <style
       id="style2">.cls-1{fill:#212121;}</style>
  </defs>
  <title
     id="title6">avatarka</title>
  <path
     class="cls-1"
     d="M38.9,41.1c-1.4.6-1.9,0-2.2-1.3-.4-2.1-.9-4.1-1.4-6.2s-.2-2.6,1.9-3.4a27.49,27.49,0,0,1-.7-10.3c.5-3.5,1.3-6.9,4.1-9.2a16.76,16.76,0,0,1,5-2.9A20.5,20.5,0,0,1,63.3,9.7a11.25,11.25,0,0,1,4.6,6.5,26.85,26.85,0,0,1,.2,13.5c0,.2-.1.4-.1.6,2.2.9,2.3,1.2,1.9,3.5-.4,2-.9,4.1-1.3,6.1-.4,1.5-.6,1.7-2.2,1.4-.7,4.1-3.3,7.7-2.6,12.2a4.68,4.68,0,0,0,3,4.1C72.9,60.1,79,62.7,85,65.5a47.22,47.22,0,0,1,6.8,4.1,4.21,4.21,0,0,1,1.6,1.9c.7,2.2,1.3,4.4,1.8,6.7a42.33,42.33,0,0,1,.5,5c.3,3.5.5,7,.8,10.5.2,1.8.5,3.5.8,5.3a31.06,31.06,0,0,1,.4,3.2H7.5c.3-2,.6-4,.8-6,.3-3.1.4-6.3.8-9.4.6-5,.7-10,2.6-14.8a6.46,6.46,0,0,1,2.4-2.8c7.5-5.3,16-8.3,24.4-11.7a4.42,4.42,0,0,0,3-4.2,14.64,14.64,0,0,0-1.3-7.7A25.42,25.42,0,0,1,38.9,41.1Z"
     id="path8"
     style="fill:#ffffff" />
  <metadata
     id="metadata67">
    <rdf:RDF>
      <cc:Work
         rdf:about="">
        <dc:title>avatarka</dc:title>
      </cc:Work>
    </rdf:RDF>
  </metadata>
</svg>
