<?xml version="1.0" encoding="utf-8"?>
<!-- Generator: Adobe Illustrator 23.0.5, SVG Export Plug-In . SVG Version: 6.00 Build 0)  -->
<svg version="1.1" id="Слой_1_xA0_Изображение_1_"
	 xmlns="http://www.w3.org/2000/svg" xmlns:xlink="http://www.w3.org/1999/xlink" width="1067" height="1067" viewBox="0 0 1067 1067"
	 style="enable-background:new 0 0 1067 1067;" xml:space="preserve">
<g>
	<path d="M541.6,1002c-4.3,0-8.7,0-13,0c-1.6-1.4-2.9-3.3-4.8-4.1c-31.2-13.9-61.4-29.5-90.9-46.7
		c-55.3-32.2-108.5-67.4-156.8-109.7c-38.8-34-74.3-71-101.8-115.1c-14-22.5-22.3-47.4-31.8-71.8c-2.1-5.4-0.7-12.2-1-18.3
		c0-1-0.3-1.9-0.5-2.9c0-187.5,0-375,0-562.4c1.8-0.1,3.7-0.3,5.5-0.3c31.8-0.2,63.6-0.5,95.4-0.5C426.3,70,610.8,70,795.2,70
		c42.5,0,84.9,0.4,127.4,0.6c2.1,0,4.2,0.3,6.6,0.5c0,2.1,0,3.7,0,5.4c-0.1,177.5-0.1,354.9-0.2,532.4c0,15.3-0.5,30.6-0.8,45.9
		c0,1.4-0.2,3-0.8,4.3c-1.6,3.4-3.8,6.6-5.2,10.1c-14,37.2-32.4,71.8-59,101.7c-48.4,54.3-101.8,102.8-163.2,142.3
		c-49,31.5-99.6,60.2-152.6,84.5C545.3,998.7,543.6,1000.5,541.6,1002z"/>
</g>
</svg>
