<?xml version="1.0" encoding="utf-8"?>
<!-- Generator: Adobe Illustrator 23.0.5, SVG Export Plug-In . SVG Version: 6.00 Build 0)  -->
<svg version="1.1" id="Слой_1_xA0_Изображение_1_"
	 xmlns="http://www.w3.org/2000/svg" xmlns:xlink="http://www.w3.org/1999/xlink" width="1067" height="1067" viewBox="0 0 1067 1067"
	 style="enable-background:new 0 0 1067 1067;" xml:space="preserve">
<style type="text/css">
	.st0{display:none;}
</style>
<path class="st0" d="M928.6,71.9c0,160.5,0,321-0.1,481.4c0,33.4,0.3,66.9-0.7,100.3c-0.1,2.2-0.3,4.3-1.7,6.1c-0.6,0.9-1,2-1.5,3
	c-4,9.5-7.9,19-12,28.5c-5.8,13.3-12.1,26.2-19.9,38.4c-7.4,11.6-15.1,23-24.1,33.4c-8.6,9.8-17.3,19.5-26.1,29.1
	c-14,15.2-28.8,29.5-43.9,43.6c-12.4,11.5-25.2,22.4-38.6,32.7c-10.8,8.3-21.5,16.7-32.5,24.7c-9.1,6.6-18.6,12.6-28,18.9
	c-15.8,10.7-32.1,20.6-48.6,30.3c-8.4,4.9-17,9.5-25.5,14.3c-18.6,10.3-37.3,20.3-56.4,29.7c-6.9,3.4-14,6.6-21.1,9.6
	c-2.9,1.2-5.4,2.5-7.4,4.8h-11c-1.8-1.9-4.1-3.2-6.4-4.3c-5.6-2.5-11.3-4.8-16.8-7.6c-14.1-7-28.2-14.3-42.3-21.4
	c-15.7-8-31.1-16.7-46.1-26c-17.9-11-35.5-22.4-53.2-33.8c-9.5-6.1-19-12.4-28.1-19.1c-12.4-9.1-24.6-18.6-36.7-28.1
	c-13.4-10.5-26.3-21.6-38.8-33.1c-7.1-6.6-14.1-13.2-21-20c-16.8-16.8-32.4-34.7-46.8-53.6c-9-11.8-17.3-24-24.5-36.9
	c-9.2-16.3-16.1-33.7-22.1-51.4c-1.1-3.4-2.5-6.7-4.1-10c-0.6-1.2-0.9-2.3-1-3.6c-0.1-6.6-0.3-13.1-0.5-19.7
	c-0.1-5.1-0.3-10.2-0.5-15.3c0-0.8-0.3-1.5-0.4-2.3V68.6c1.4,0,2.9-0.1,4.3-0.1c259.9,0,519.8,0,779.8,0c0.7,0,1.4,0,2.2,0
	c0.6,0,1.2,0.1,2,0.2V71.9z"/>
<g>
	<path d="M541.6,1002c-4.3,0-8.7,0-13,0c-1.6-1.4-2.9-3.3-4.8-4.1c-31.2-13.9-61.4-29.5-90.9-46.7
		c-55.3-32.2-108.5-67.4-156.8-109.7c-38.8-34-74.3-71-101.8-115.1c-14-22.5-22.3-47.4-31.8-71.8c-2.1-5.4-0.7-12.2-1-18.3
		c0-1-0.3-1.9-0.5-2.9c0-187.5,0-375,0-562.4c1.8-0.1,3.7-0.3,5.5-0.3c31.8-0.2,63.6-0.5,95.4-0.5C426.3,70,610.8,70,795.2,70
		c42.5,0,84.9,0.4,127.4,0.6c2.1,0,4.2,0.3,6.6,0.5c0,2.1,0,3.7,0,5.4c-0.1,177.5-0.1,354.9-0.2,532.4c0,15.3-0.5,30.6-0.8,45.9
		c0,1.4-0.2,3-0.8,4.3c-1.6,3.4-3.8,6.6-5.2,10.1c-14,37.2-32.4,71.8-59,101.7c-48.4,54.3-101.8,102.8-163.2,142.3
		c-49,31.5-99.6,60.2-152.6,84.5C545.3,998.7,543.6,1000.5,541.6,1002z M824.3,564.9c-0.6-23.3,1-49.7-3.6-76
		c-3.1-17.8-7.1-34.4-20.9-47.2c-4.8-4.5-7-10.1-7.8-16.8c-1.9-14.5-0.8-29.6-9.2-42.8c-0.6-1-0.3-2.6-0.5-3.9
		c-0.3-2.1-0.2-4.4-1-6.4c-3.9-10.2-7.3-20.6-12.1-30.3c-5.4-10.8-11.7-21.3-18.7-31.1c-7.4-10.4-15.8-20.2-24.4-29.6
		c-15.9-17.6-33.3-33.5-54-45.5c-6.2-3.6-12.4-7-18.8-10.2c-6.9-3.6-13.6-7.5-20.8-10.2c-10-3.8-20.3-6.9-30.7-9.9
		c-8.3-2.4-16.7-5.8-25.1-5.9c-28.7-0.3-57.5-4.1-86,2.5c-12.5,2.9-25.2,5.8-37.3,10.1c-11.8,4.2-23.1,9.8-34.3,15.5
		c-30.1,15.4-54.9,37.3-76.9,62.6c-12.9,14.8-23.2,31.2-32.1,48.5c-5.9,11.6-10.8,23.6-14.7,36.1c-4.4,14.3-8.8,28.4-9.1,43.5
		c-0.2,10.7-3.6,20.4-11.8,28.1c-7.6,7.2-13,16.3-15.6,26.2c-2.8,10.9-3.9,22.2-5.2,33.4c-1.1,9.2-1.8,18.5-2.1,27.8
		c-0.8,25.8-1,51.6-2.3,77.4c-0.6,12,4.3,21.2,11.5,29.8c1.1,1.3,3.3,2.3,5,2.4c7.2,0.2,14.3,0.1,21.5-0.1c2.2-0.1,4.8-0.5,6.6-1.6
		c12.2-7.5,24.2-15.3,36.2-23c13-8.4,25.7-17,38.9-25.1c18.2-11.2,37.6-20.1,57.4-28.1c4.6-1.8,9.3-3.4,14-4.7
		c7.8-2.2,15.6-4.5,23.5-6.2c12-2.6,24-6.1,36.1-6.6c25.9-1,51.9-0.3,77.9-0.2c4.1,0,8.3,0.7,12.3,1.5c11,2.3,22.1,4.5,33,7.3
		c10.4,2.7,20.7,5.7,30.8,9.4c9.1,3.3,18,7.3,26.7,11.7c12,6,24.1,11.9,35.5,19.1c18,11.4,35.5,23.5,52.8,35.7
		c11.6,8.2,23.9,12.5,38.3,11.3c7.8-0.7,16.5-8.9,16.5-17C824.3,607,824.3,587.5,824.3,564.9z"/>
</g>
</svg>
